<svg width="32" height="24" viewBox="0 0 32 24" fill="none" xmlns="http://www.w3.org/2000/svg">
<path fill-rule="evenodd" clip-rule="evenodd" d="M31.5 24C31.7761 24 32 23.7761 32 23.5V5.11768C32 4.69233 31.5027 4.46123 31.1776 4.73553L16.3224 17.2695C16.1362 17.4267 15.8638 17.4267 15.6776 17.2695L0.822435 4.73553C0.497343 4.46123 0 4.69233 0 5.11768V23.5C0 23.7761 0.223858 24 0.5 24H31.5ZM15.6818 11.7375C15.8666 11.8899 16.1334 11.8899 16.3182 11.7375L29.4719 0.885686C29.8336 0.587301 29.6226 0 29.1537 0H2.8463C2.37742 0 2.16643 0.587301 2.5281 0.885687L15.6818 11.7375Z" fill="white"/>
</svg>
