<svg width="285" height="70" viewBox="0 0 285 70" fill="none" xmlns="http://www.w3.org/2000/svg">
<path d="M10.404 62.2659C9.92389 64.1843 8.00359 65.6231 5.60322 65.6231C2.56274 65.6231 0.482422 63.5449 0.482422 60.5074C0.482422 57.6298 2.72277 55.3917 5.60322 55.3917C7.84356 55.3917 9.92389 56.8305 10.404 58.9088L9.28379 59.0686C8.96374 57.6298 7.36349 56.5108 5.76324 56.5108C3.36287 56.5108 1.76262 58.2693 1.76262 60.6673C1.76262 63.0653 3.52289 64.8238 5.76324 64.8238C7.52352 64.8238 8.96374 63.7047 9.28379 62.2659H10.404Z" fill="#333331"/>
<path d="M14.4032 65.3034H13.123L16.8036 55.8713H18.5639L22.2445 65.3034H20.9643L20.1641 63.385H15.0433L14.4032 65.3034ZM17.7638 56.6707L15.5234 62.4258H20.0041L17.7638 56.6707Z" fill="#333331"/>
<path d="M33.6071 62.5857C33.6071 64.1844 32.1669 65.3034 30.2466 65.3034H26.0859V55.8713H30.2466C32.0069 55.8713 33.4471 56.9904 33.4471 58.4292C33.4471 59.3884 32.807 60.1877 31.8468 60.3476C32.807 60.5074 33.6071 61.4666 33.6071 62.5857ZM30.0866 56.6707H27.2061V59.7081H30.0866C31.3668 59.7081 32.1669 59.0687 32.1669 58.2693C32.1669 57.3101 31.3668 56.6707 30.0866 56.6707ZM27.2061 60.6673V64.1844H30.0866C31.5268 64.1844 32.4869 63.385 32.4869 62.4258C32.4869 61.4666 31.5268 60.6673 30.0866 60.6673H27.2061V60.6673Z" fill="#333331"/>
<path d="M39.0479 65.3034H37.9277V55.8713H39.0479V65.3034Z" fill="#333331"/>
<path d="M50.4105 63.8646V55.7114H51.5307V65.1435H49.9304L44.8096 56.9904V65.1435H43.6895V55.7114H45.2897L50.4105 63.8646Z" fill="#333331"/>
<path d="M63.0509 64.1843V65.1435H56.0098V55.7114H63.0509V56.6706H57.45V59.7081H62.5708V60.6673H57.45V64.1843H63.0509V64.1843Z" fill="#333331"/>
<path d="M66.0918 56.6706V55.7114H73.933V56.6706H70.5725V65.1435H69.4523V56.6706H66.0918Z" fill="#333331"/>
<path d="M86.8959 65.3034H83.8555V55.8713H86.8959C90.4165 55.8713 92.6568 57.7897 92.6568 60.6673C92.6568 63.385 90.4165 65.3034 86.8959 65.3034ZM84.9756 56.6707V64.1844H86.8959C89.6164 64.1844 91.5367 62.7456 91.5367 60.5074C91.5367 58.2693 89.6164 56.6707 86.8959 56.6707H84.9756Z" fill="#333331"/>
<path d="M103.697 64.1843V65.1435H96.6562V55.7114H103.537V56.6706H97.9365V59.7081H103.057V60.6673H97.9365V64.1843H103.697V64.1843Z" fill="#333331"/>
<path d="M114.58 63.8646V55.7114H115.701V65.1435H114.1L108.98 56.9904V65.1435H107.859V55.7114H109.46L114.58 63.8646Z" fill="#333331"/>
<path d="M119.221 56.6706V55.7114H127.062V56.6706H123.861V65.1435H122.741V56.6706H119.221Z" fill="#333331"/>
<path d="M130.419 65.3034H129.139L132.819 55.8713H134.58L138.26 65.3034H136.98L136.18 63.385H131.059L130.419 65.3034ZM133.779 56.6707L131.539 62.4258H136.02L133.779 56.6707Z" fill="#333331"/>
<path d="M143.224 65.3034H142.104V55.8713H143.224V65.3034Z" fill="#333331"/>
<path d="M155.866 65.3034H154.426L152.026 61.7864H148.825V65.3034H147.705V55.8713H152.186C154.266 55.8713 155.866 57.1503 155.866 58.9088C155.866 60.1877 154.906 61.3068 153.466 61.6265L155.866 65.3034ZM152.026 56.6707H148.825V60.6673H152.026C153.466 60.6673 154.586 59.868 154.586 58.7489C154.586 57.47 153.626 56.6707 152.026 56.6707Z" fill="#333331"/>
<path d="M166.91 64.1843V65.1435H159.869V55.7114H166.75V56.6706H161.149V59.7081H166.27V60.6673H161.149V64.1843H166.91V64.1843Z" fill="#333331"/>
<path d="M3.83722 44.1229H0.636719L9.75814 20.3029H13.9188L23.0402 44.1229H19.9997L18.2395 39.1671H5.75752L3.83722 44.1229ZM11.8385 22.7009L6.23759 36.9289H17.2793L11.8385 22.7009Z" fill="#A09D7D"/>
<path d="M64.647 44.1229V23.82L55.5256 44.1229H53.2852L44.3238 23.82V44.1229H41.4434V20.3029H45.604L54.5654 40.2861L63.5268 20.3029H67.6875V44.1229H64.647V44.1229Z" fill="#333331"/>
<path d="M92.49 20.3029H95.3704V34.531C95.3704 40.7657 91.2098 45.0821 85.4489 45.0821C79.688 45.0821 75.5273 40.7657 75.5273 34.531V20.3029H78.4078V34.531C78.4078 38.8473 81.1282 42.5242 85.4489 42.5242C89.6095 42.5242 92.49 39.1671 92.49 34.531V20.3029Z" fill="#333331"/>
<path d="M123.376 44.1229H120.016L114.255 35.1704H106.414V44.1229H103.533V20.3029H114.255C119.376 20.3029 123.056 23.3404 123.056 27.8166C123.056 31.1738 120.496 34.0514 116.975 34.6908L123.376 44.1229ZM114.095 22.7009H106.414V32.6126H114.095C117.615 32.6126 120.176 30.5343 120.176 27.8166C120.176 24.6193 117.615 22.7009 114.095 22.7009Z" fill="#333331"/>
<path d="M129.137 22.7009V20.3029H147.699V22.2213L132.817 41.8848H148.18V44.2828H128.977V42.3644L144.019 22.7009H129.137Z" fill="#333331"/>
<path d="M155.539 44.1229H152.498L161.619 20.3029H165.78L174.902 44.1229H171.861L170.101 39.1671H157.619L155.539 44.1229ZM163.54 22.7009L157.939 36.9289H168.981L163.54 22.7009Z" fill="#333331"/>
<path d="M285 0V70H277.599V5.7783L254.27 53.8207V53.9858H247.03L220 0H227.079L253.465 52.3349L278.886 0H285Z" fill="#333331"/>
<path d="M213.793 0H208.192L182.268 50.8373H0V52.1162H181.468L173.627 67.6232H175.067L182.908 52.1162H240.517L213.793 0ZM183.709 50.8373L208.032 2.87758L232.836 50.8373H183.709Z" fill="#A09D7D"/>
</svg>
